<svg
  version="1.0"
  xmlns="http://www.w3.org/2000/svg"
  width="90.000000pt"
  height="90.000000pt"
  viewBox="0 0 90.000000 90.000000"
  preserveAspectRatio="xMidYMid meet"
>
  <g
    transform="translate(0.000000,90.000000) scale(0.100000,-0.100000)"
    fill="#FF9966"
    stroke="none"
  >
    <path
      d="M90 810 c-16 -16 -20 -33 -20 -95 l0 -75 35 0 35 0 0 60 0 60 60 0
60 0 0 35 0 35 -75 0 c-62 0 -79 -4 -95 -20z"
    />
    <path
      d="M640 795 l0 -35 60 0 60 0 0 -61 0 -60 38 3 37 3 0 71 c0 101 -13
114 -117 114 l-78 0 0 -35z"
    />
    <path
      d="M373 746 c-145 -47 -225 -152 -225 -293 0 -238 253 -386 459 -267 56
33 109 96 134 163 40 106 5 248 -78 322 -81 71 -205 103 -290 75z m145 -177
c35 -31 125 -79 150 -79 19 0 15 -89 -7 -135 -84 -180 -334 -180 -417 0 -36
76 -33 90 22 104 72 18 139 57 176 101 18 22 35 40 37 40 2 0 19 -14 39 -31z"
    />
    <path
      d="M350 475 c-26 -31 13 -82 44 -56 19 16 21 42 4 59 -16 16 -33 15 -48
-3z"
    />
    <path
      d="M508 479 c-24 -13 -23 -46 1 -59 11 -5 22 -10 25 -10 8 0 36 31 36
40 0 10 -29 40 -38 40 -4 0 -15 -5 -24 -11z"
    />
    <path
      d="M70 185 c0 -102 13 -115 115 -115 l75 0 0 35 0 35 -60 0 -60 0 0 60
0 60 -35 0 -35 0 0 -75z"
    />
    <path
      d="M760 201 l0 -61 -60 0 -60 0 0 -35 0 -35 78 0 c104 0 116 12 116 113
l1 72 -37 3 -38 3 0 -60z"
    />
  </g>
</svg>