<svg
  version="1.0"
  xmlns="http://www.w3.org/2000/svg"
  width="430.000000pt"
  height="128.000000pt"
  viewBox="0 0 430.000000 128.000000"
  preserveAspectRatio="xMidYMid meet"
>
  <g
    transform="translate(0.000000,128.000000) scale(0.100000,-0.100000)"
    fill="#fff"
    stroke="none"
  >
    <path
      d="M3595 1194 c-58 -20 -109 -66 -135 -121 -18 -38 -24 -73 -29 -163
l-6 -115 -43 -3 -43 -3 3 -47 3 -47 43 -3 42 -3 0 -195 0 -194 50 0 50 0 0
195 0 195 75 0 75 0 0 50 0 50 -75 0 -75 0 0 83 c0 45 5 100 11 122 15 55 66
103 118 111 l41 7 0 48 c0 49 0 49 -32 48 -18 0 -51 -7 -73 -15z"
    />
    <path
      d="M100 726 l0 -426 128 0 c70 0 155 4 189 9 213 31 355 195 354 408 0
195 -95 336 -269 404 -49 19 -82 23 -229 27 l-173 4 0 -426z m359 280 c62 -23
122 -75 149 -129 68 -137 37 -307 -70 -386 -59 -43 -126 -61 -230 -61 l-88 0
0 301 0 302 98 -6 c53 -2 117 -12 141 -21z"
    />
    <path
      d="M3174 1038 c-53 -24 -50 -97 5 -116 25 -9 34 -7 56 9 56 45 4 136
-61 107z"
    />
    <path
      d="M1460 900 l0 -110 -45 0 -45 0 0 -45 0 -45 45 0 45 0 0 -200 0 -200
50 0 50 0 0 200 0 200 65 0 65 0 0 45 0 45 -65 0 -65 0 0 110 0 110 -50 0 -50
0 0 -110z"
    />
    <path
      d="M2830 900 l0 -110 -46 0 -45 0 3 -42 c3 -43 3 -43 46 -46 l42 -3 0
-200 0 -199 50 0 50 0 0 200 0 200 65 0 65 0 0 45 0 45 -65 0 -65 0 0 110 0
110 -50 0 -50 0 0 -110z"
    />
    <path
      d="M1053 799 c-210 -37 -283 -310 -118 -444 45 -37 119 -65 169 -65 48
0 132 27 161 53 l26 22 -36 35 -35 34 -30 -17 c-50 -30 -119 -32 -164 -5 -21
13 -45 32 -53 44 -13 20 -7 23 172 94 102 40 185 76 185 79 0 3 -14 30 -30 59
-50 86 -144 129 -247 111z m117 -119 c14 -9 24 -21 24 -26 -1 -5 -59 -32 -128
-61 -139 -57 -144 -56 -106 23 41 83 140 114 210 64z"
    />
    <path
      d="M1937 799 c-30 -5 -65 -20 -95 -41 -138 -100 -150 -288 -24 -398 46
-41 120 -70 178 -70 41 0 123 27 154 50 l25 19 -37 37 c-28 28 -40 35 -50 27
-25 -20 -96 -36 -132 -29 -34 7 -106 58 -106 76 0 4 78 39 173 76 94 37 176
71 180 75 24 19 -46 125 -104 155 -43 22 -107 31 -162 23z m123 -119 c14 -9
24 -21 23 -26 -2 -5 -60 -32 -129 -61 l-127 -52 6 35 c18 107 142 164 227 104z"
    />
    <path
      d="M2481 798 c-46 -8 -115 -44 -143 -74 -31 -35 -61 -106 -66 -154 -15
-155 132 -295 289 -277 47 6 129 41 129 55 0 4 -13 22 -29 41 l-28 35 -38 -18
c-70 -33 -149 -10 -199 58 -30 39 -29 133 0 173 45 60 132 83 205 53 31 -13
33 -12 60 18 16 18 29 36 29 41 0 14 -66 42 -118 50 -26 4 -67 3 -91 -1z"
    />
    <path d="M3150 545 l0 -245 50 0 50 0 0 245 0 245 -50 0 -50 0 0 -245z" />
    <path
      d="M3806 573 c58 -120 108 -223 110 -229 3 -5 -22 -68 -56 -140 l-60
-129 47 -3 c25 -2 49 0 53 5 8 9 340 700 340 708 0 3 -24 5 -54 5 l-53 0 -71
-152 c-38 -84 -73 -164 -77 -177 -9 -29 -15 -22 -50 64 -16 39 -50 114 -77
168 l-48 97 -55 0 -54 0 105 -217z"
    />
  </g>
</svg>